<svg id="Calque_1" data-name="Calque 1" xmlns="http://www.w3.org/2000/svg" viewBox="0 0 2379.97 2526.44"><path d="M326.57,643.85l13.58-9.29c-7.38-18.27-5.44-26,8.19-39.89,3.54-3.59,7.41-9.17,7.22-13.67-.54-12.5,2.67-21.32,13.41-29.13,5.86-4.27,7.75-13.91,11.59-21,7.69-14.32,16.87-28,22.9-43,8.6-21.35,14.69-43.71,22.43-65.44,1.47-4.13,5.25-7.76,8.69-10.81,3.61-3.21,10.29-4.53,11.82-8.25,8.24-19.94,21.89-37.87,22-61.05,0-5.4,5.55-11.41,9.78-16,8.24-8.94,19.48-15.76,25.69-25.8,13.32-21.56,40.89-32.07,64.37-21.88.45.19.77.85,1.19.9,22.17,2.34,37.85,19.29,57.66,25.81,11.35,3.74,25.49-.93,38.36-1.95,3.38-.27,8.14-2.73,9.84-1.3,12.36,10.41,25.89,6.36,39.73,5.27,20-1.58,24.92,2.8,30,20.15,12.38,5,23.56,8.93,34.13,14.06,15.06,7.31,29.41,16.14,44.61,23.11,7.61,3.49,17.58,2.47,24.48,6.73,13.54,8.38,25.45,19.35,38.5,28.59,5.89,4.17,13,6.64,19.37,10.12,6.87,3.73,13.65,7.64,20.36,11.65,3,1.77,5.67,5.75,8.47,5.72,27.39-.27,30.43,22.56,39.31,40.19,9.66,19.15,18.19,39.27,30.69,56.44,8.33,11.44,21.48,22.18,34.7,26.64,23.25,7.85,41.61,23,62.2,34.66,11.78,6.68,22.1,15.9,33.4,23.51,3.06,2.07,7.28,2.4,10.94,3.61s9.47,1.5,10.58,3.92c6,13.11,18.66,11.79,29.24,14,12.71,2.69,21.18,8,19.67,22.16,20.64,4.83,23.63,14.18,14.91,33-8.28,17.82-13.13,37.2-20.45,55.51-6.46,16.16-19.45,26.61-32.57,37.81-10.67,9.1-17.2,23.66-24,36.63-19.5,37.38-37.67,75.47-57.45,112.7-9.06,17-20.53,32.84-31.2,49-6.11,9.26-13.61,13.77-25.42,8.42-10.21-4.62-21.76-6.31-31.91-11-15.32-7.1-29.59-16.45-44.95-23.41-12.6-5.71-26-11.94-39.33-12.89-7.75-.56-19.85,6.9-23.77,14.13-36,66.48-72.81,132.7-104.88,201.1-15.89,33.89-16.11,72.9-12.54,110.63,2.06,21.82,6.1,43.48,7.51,65.32,2,30.56,18.66,55.51,30.71,81.87,12,26.15,27.64,50.92,44.16,74.57,20.81,29.81,51.06,47.87,84.81,60.66,23.93,9.07,46.81,21.27,71.19,28.72,27.92,8.54,56.89,13.87,85.64,19.34,5.3,1,15.81-2.89,16.78-6.46,1.84-6.79,1.06-16.93-3.06-22.25-19.82-25.62-41.38-49.87-61.68-75.12-5.31-6.59-8.55-14.92-12.34-22.65-13.25-27.09-25.52-54.7-39.69-81.3-15.71-29.49-22.82-61.27-29.43-93.49-3.06-14.91-8.5-29.32-12-44.16s-6-29.9-8.84-44.89c-.92-4.92-1-10-2.21-14.85-2.47-9.52,12.86-23.69,27.18-23.44,22.05.39,44.09,2.77,66.12,2.62,38.32-.26,76.78-.06,114.88-3.41,27.75-2.43,54.24-.14,81.15,5.55,6.84,1.44,14.9-4.51,22.46-4.7,49.37-1.23,98.58.9,147.83,5.18,25,2.17,50.4-1.68,75.63-1.92,13.44-.13,26.88,2.19,40.34,2.43,24.34.43,48.69-.24,73,.2,38.65.71,77.31,1.89,116,3.06,3.89.12,8,2.88,11.54,2.14,6.9-1.46,14.79-3.09,19.61-7.54,2.41-2.22.17-11.34-2.08-16.4-7.24-16.27-15.38-32.14-23.32-48.09-6.11-12.27-9.74-27.43-19.25-36-20-18-24.14-42.9-34.83-65-6.45-13.31-12.75-26.71-19.57-39.83-16.49-31.74-33.4-63.26-49.84-95-13.69-26.45-27.25-53-40.35-79.71-31.51-64.32-61.61-129.37-94.49-193-18.65-36.09-41.65-69.93-62.78-104.72-1-1.62-4-2.52-4.2-4-4.14-32.31-34.12-51.93-40.63-83-2.44-11.61-5.29-23.14-7.75-34.74-.27-1.27.32-3.44,1.28-4.12,11.94-8.46,18.56-23.88,35.51-26,6.56-.83,13.26-3.69,19-7.09,20.36-12,38-29.7,64-29.38,1.35,0,2.73-1.16,4.06-1.84,20.37-10.32,40.7-20.72,61.12-30.93a34.75,34.75,0,0,1,9.68-3c33.25-5.53,66.35-12.76,99.83-15.81,30.44-2.76,59.91-16.68,91.32-8.61a8.59,8.59,0,0,0,4.5-.06c45.83-14.17,91.6-.89,137.41-.65,24.82.13,47.79,4.69,70.93,11.64.93.27,2.14.84,2.84.5,23.66-11.57,43.2-.31,65,8.33,23.23,9.21,49.7,9.85,73.84,17.21,21.14,6.45,40.3,20.23,61.63,25,28.41,6.36,47.65,27.37,72.77,38.67,20.21,9.1,39.11,22,56.82,35.59,36.8,28.18,72.81,57.46,108.34,87.25,12.07,10.13,20.29,25,32.73,34.49,26.8,20.38,42.82,49.53,64.46,74,30.78,34.83,54.46,74.53,77.88,114.27,5.3,9,3.74,21.85,6.44,32.65,1.62,6.48,5.17,12.53,8.22,18.59a88,88,0,0,0,6.43,10c20,29,27.06,63.64,31,96.62,2.59,21.72,10.85,40.33,15.25,60.62a228.65,228.65,0,0,1,5.12,39.85c2.42,66.2,6.91,132.49,5.21,198.61-.91,35.23-12.42,70.27-20,105.2-7.51,34.41-16,68.6-24.47,102.8-1.14,4.66-4.49,8.73-6.44,13.24-15.2,35.11-30.07,70.37-45.61,105.33-3.8,8.54-9.65,16.18-14.65,24.17-16.36,26.11-31.69,53-49.46,78.06-15.24,21.53-34,40.56-49.72,61.77-6.13,8.26-11.1,19.29-11.69,29.34-1.1,18.88,1.78,38,2.17,57,.17,8.39-2.81,16.88-2.42,25.24,1,21.94,3.69,43.8,4.58,65.74,1.07,26.34,1,52.73,1.36,79.1.06,4-.23,8.06-.23,12.09q0,76.35,0,152.71,0,69.09,0,138.18c0,18.84.24,37.67-.05,56.5-.89,58.8-2,117.6-2.95,176.4-.26,16.31.66,32.66-.18,48.93-1.47,28.46-3.68,56.88-6,85.29-2.83,35.33-4.52,70.84-9.69,105.84-2.8,19-9.05,38.64-18.7,55.09-12.21,20.81-33.65,33.42-57.87,35.32-29.78,2.34-59.84,1-89.78,1.34-57.61.66-115.23,2.13-172.84,1.93-77.48-.27-155-1.72-232.45-2.81-64.11-.89-128.22-2.26-192.34-2.9-46.55-.46-93.12.28-139.67-.21-36.64-.39-73.28-2.61-109.92-2.69-144.88-.36-289.77-.19-434.66-.22-13.31,0-26.63-.18-39.94,0-10.36.16-12.26-4.73-11.44-14.38,1.68-19.8,1.89-39.74,2.65-59.62.81-21.34,2.42-42.7,2.11-64-.39-26.48-2.86-52.93-3.56-79.42-.55-20.93.18-41.91.42-62.86,0-4,1.18-8.09.66-12-2.92-21.82-6.59-43.55-9.15-65.41-.87-7.5.69-15.29,1.24-22.95,1-13.61,2.91-27.23,2.83-40.83-.11-16.88-4.91-32.9.65-50.82,4.45-14.33-2.31-31.73-1-47.53,3.44-43-9.83-84.2-11.91-126.54-.15-3-.69-6.06-.34-9,4-33.49-12.13-55.4-45-61.46-6.15-1.13-11.94-4.24-17.84-6.56-17.06-6.68-34.29-13-51.05-20.3-10.83-4.74-20.92-11.14-31.42-16.66-9.45-5-18.93-9.86-28.53-14.51-5.37-2.6-12.86-3.11-16.23-7.18-23-27.79-57.55-39-86-58.67-26-17.92-45.84-41.94-71.57-59.41-6.3-4.28-12.44-11.4-14.71-18.47-4.25-13.28-15.21-18.38-24.2-26.72-14.79-13.69-27.07-30.19-39.86-45.94-27.13-33.4-45.48-72.46-68.88-108.08-30.88-47-50.47-98.84-75-148.58-12.59-25.53-16.77-52.61-23.28-79.57a500.66,500.66,0,0,0-25.48-78.24c-11.59-27.21-10.05-55.15-9.94-83.1.05-14.72,3.95-29.42,5.89-44.15,4-30.61,6.77-61.43,12.1-91.8,5.4-30.76,13.08-61.13,20.18-91.57,3.71-15.91,7.4-31.92,12.75-47.32,7.28-20.94,16.31-41.28,24.26-62,7.37-19.19,13.55-38.88,21.67-57.74a438.77,438.77,0,0,1,23.9-46.51c19.75-34,40.11-67.67,60.33-101.41,6.46-10.79,3.54-19.9-10.73-25.46s-29.27-9.67-44.2-13.38C356.94,678.59,335.49,671.61,326.57,643.85ZM1933,1277.66c-10.67,12.84-26.09,20.49-46.24,19.27-28.61-1.72-57.28-2.27-85.93-3.43-1.93-.08-3.79-1.34-5.74-1.57-28.46-3.41-56.88-8.89-85.42-9.56-42.84-1-85.81,3-128.66,2-82.92-1.89-165.79-5.75-248.69-8.8-8.85-.32-17.74-1.38-26.56-1-45,2.14-90,4.88-135.09,6.89-16.28.73-32.64.07-49,0-2,0-4-1.23-5.87-.89-6.75,1.26-16.47.82-19.34,5-3.61,5.23-3.61,15-1.56,21.65,3.6,11.75,10.12,22.58,15.1,33.94,17.68,40.36,34.83,80.78,67.39,112.55,9.23,9,13.94,22.62,20.89,34,7.25,11.88,12.93,25.35,22.38,35.14,40,41.39,80.27,82.54,122.16,122,20.14,19,42.12,38,66.72,49.75,49,23.44,92.72,57.57,146.51,71.29,19.76,5,38.47,14.09,58.11,19.7,23.29,6.64,46.8,13.49,70.7,16.75,37.51,5.11,75.8,12.28,113.08,9.48,49.29-3.7,98.71-13.2,146.6-25.81,39.06-10.28,76.48-27.61,113.63-44.07,23.14-10.27,44.5-24.6,66.51-37.37,26.08-15.14,52-30.55,78-45.88a14.69,14.69,0,0,0,2.18-2.08c23.65-21.84,47.55-43.42,70.87-65.61,12.86-12.24,25.5-24.88,36.93-38.44,19.52-23.18,39-46.51,56.61-71.15,13.36-18.74,34.39-31.4,41.78-54.9,3.64-11.57,8.09-23.75,15.42-33.12,13.48-17.25,22-36,28.24-56.84,6.44-21.57,16.38-42.07,23.42-63.49,7.25-22,13.91-44.41,18.76-67.08,2.72-12.73-1.59-27.25,2.25-39.39,8.13-25.69,9.33-51,7.67-77.71-2.91-46.81,3.64-94.16-9.49-140.39-7.51-26.48-13-53.56-21.08-79.83-6.74-21.76-19.3-42.13-23.32-64.2-3.9-21.4-15.48-37.18-25.88-54.45-5.78-9.6-11.39-19.32-16.57-29.25-3.16-6.05-4.36-13.28-8.15-18.81-27.71-40.34-56.16-80.18-92.08-113.84-17.32-16.23-30.93-35.63-52.79-48.11-32.26-18.42-61.33-42.35-92.72-62.45a519.22,519.22,0,0,0-64.25-35c-32-14.64-64-31.36-97.82-39.75-52-12.88-105.23-22.91-158.51-27.62-46.51-4.12-93.89-.43-140.75,2.2-24.6,1.38-48.86,8.25-73.37,12a478.28,478.28,0,0,0-105.68,28.88c-17.28,6.93-19.33,16.48-9.33,32.69,19.09,30.93,37.87,62.06,56.67,93.18,5.58,9.23,11.15,18.49,16.08,28.07q20.46,39.68,40.31,79.66c5.28,10.58,10.73,21.17,14.79,32.24,5.95,16.26,6.95,35.79,16.78,48.88,19.27,25.64,31.9,53.66,43.14,83.08,6.36,16.63,14.81,32.56,23.32,48.26,8.73,16.09,19.76,31,27.83,47.36,12,24.31,21.47,49.83,33.43,74.15,9.61,19.54,21.93,37.73,32,57.08,25.16,48.46,49.66,97.26,74.6,145.84,2,3.93,6.21,6.83,7.85,10.84C1912.28,1225.07,1922.32,1250.76,1933,1277.66Zm-919.7-416.8c6.24-6.57,13.3-11.38,16.74-18.05,19.85-38.44,38.84-77.33,58.13-116.07,9.83-19.72,5.12-34.82-14.15-44.66-20.36-10.4-40.69-20.86-61.23-30.88-12.87-6.29-26.56-11-39.09-17.9-21.28-11.66-29.53-8.52-45.83,9.81-13.32,15-29.21,32.9-47,37.5-29.43,7.58-61.84,3.64-85-20.26-16.35-16.86-33.34-23.71-56.87-23.53-33.29.26-63-12.05-82.69-40.74-7.4-10.8-16.83-15.74-27.89-12.63-33.16,9.32-60.67-2.8-87.37-20a51.31,51.31,0,0,0-5.11-3.2c-13.07-6.41-25.75-2.9-33.4,9.43-3.68,5.92-7,12.09-10.33,18.2-10.33,18.74-8.8,26,10.1,35,33.8,16.23,68.16,31.28,102.09,47.25,35.94,16.91,72.18,33.3,107.23,51.93,17.58,9.35,32.15,9.62,48.87-.65,10.67-6.56,22.94-10.66,34.76-15.18,17.26-6.62,32.83,1.91,49.29,5.38,41,8.65,62.89,35.34,75.34,72.87,4.36,13.11,6.34,31.26,15.79,37.6C958.57,837.57,985.28,847.42,1013.3,860.86Zm636.34,1402.81.15,2.55c49-2.85,98.14-4.42,147-8.93,45.06-4.16,90.21-9.48,134.59-18a750.56,750.56,0,0,0,111.36-30.93c20-7.18,38.83-20.32,55-34.45,14.05-12.29,29.92-27.44,24.05-49.9-4-15.27-9.1-30.95-17.32-44.21a71.21,71.21,0,0,0-28.18-25.28c-25.33-12.24-51.43-23.61-78.3-31.74-33.59-10.16-69-14.42-102.32-25.37-45.34-14.92-92.55-12.66-138.66-19.83-21.67-3.36-44-3.57-66-3.43-49.65.32-99.32,1-148.92,3.1-17.13.72-34.19,9-51.08,8.37-36.7-1.32-71.32,7.65-106.28,15.83-48.56,11.37-98.67,16.55-143,43.58-18.64,11.38-33.25,26-45.43,42.38-8.94,12-15.92,29.09-7.92,45.11,7.16,14.36,15.45,28.91,26.3,40.52,34.09,36.42,79,51.68,126.68,60.41,30.24,5.55,60.4,11.76,90.85,15.87,42.12,5.68,84.38,10.91,126.75,14C1589.05,2265.42,1619.41,2263.67,1649.64,2263.67ZM858.21,815.45c-.16-14.35,2.6-29.49-12.53-39-16.6-10.4-37.26-3.25-52.67,16.22-19.89,25.14-26.54,55.2-33.48,85.09-3.83,16.47,7.92,38.62,21.85,45.46,14.43,7.08,23.8,4.59,40.43-12.86C847.06,883.9,857.82,851.56,858.21,815.45ZM803.62,456.7c0-2.52-.15-5.05,0-7.56.91-12.62-6.54-19.46-17.08-23.26-10-3.61-17.94-.88-23.63,9.07-10.54,18.42-22,36.3-32.74,54.62-10.14,17.31-17.73,35.21-16.85,56.23.47,11.24,4.77,18.21,14.45,22.11,10,4,19.19,4.77,29-3.2C791.23,536.61,797.72,496.89,803.62,456.7ZM592.81,486.46c-.36,19.22,8.63,29.53,24.66,32.71,13.56,2.68,28.61-5.94,34.12-20,8.73-22.26,18-44.38,25.51-67.05,4.35-13,8.33-27.18,7.65-40.59-.44-8.6-7.83-19.95-15.42-24.33-10-5.77-18.27,2.79-23.52,12.46-14.46,26.66-29.54,53-43.49,79.92C597.37,469.17,595,480.07,592.81,486.46Zm328.24,30.88c0-13.89-6.18-24.77-17.92-25.71-9.14-.74-22.24,4.58-27.9,11.71-20.55,25.9-37.5,53.84-35.45,89.53.5,8.66-5.65,19.66,4.49,24,8.71,3.73,20.08,3.74,29.68,2,6.53-1.15,15.32-6.86,17.46-12.63C902.3,577,911.35,547.06,921.05,517.34Z" transform="translate(-253.43 -236.78)"/><path d="M1228.1,777.58c6.11,2.87,14.42,5.87,21.81,10.39,17.62,10.8,34.52,22.78,52.3,33.29,7.36,4.35,16.16,6.36,24.43,9.06,9.61,3.14,13.39,7.83,6.81,17.49-6.43,9.43-12.36,19.22-18,29.12-10.59,18.45-49.12,31.56-70,15.1-18-14.15-40-16.26-61.1-21.61-6.51-1.65-13.34-4.72-18.2-9.14-3.23-2.94-5.83-10.62-4.22-14.12,7.44-16.19,16.8-31.49,24.8-47.45C1194.82,783.48,1210.19,781.62,1228.1,777.58Z" transform="translate(-253.43 -236.78)"/><path d="M1373,876.44c24.48,2.13,27.84,5.29,36.88,28.86,3.3,8.61,10.21,15.78,15,23.92,7,12,14.71,23.69,19.83,36.44,5.22,13-11.39,32.46-27.45,34.8-5.78.85-11.88,2.1-16.94,4.83-18.28,9.85-37.13,1.28-40-19.26-2.36-16.57-9.65-27.42-25.86-35-8.66-4-14.93-16.21-19.14-26-4.93-11.52,7.21-15.84,13.88-21.71a146.22,146.22,0,0,1,20.46-15.06C1357,883.71,1365.12,880.32,1373,876.44Z" transform="translate(-253.43 -236.78)"/><path d="M1399.26,1109.57c-5.12-17.52-9.77-35.19-15.53-52.5-4-11.88-4.48-19.47,11.12-22.55,10.88-2.14,21.35-8,31.12-13.72,17.2-10,27.44-8.92,31.37,10.37a400.52,400.52,0,0,1,7.87,85.32c-.3,19.59-23.56,30.5-45.43,25.38C1396.41,1136.4,1396.41,1136.4,1399.26,1109.57Z" transform="translate(-253.43 -236.78)"/><path d="M2037.25,839.43c-33.91-11.68-68.15-5.67-97.87-24.81-14.84-9.56-35.12-10.21-51.88-17.36-17.36-7.4-29.78-20.11-35.26-39.87-2.19-7.9-11.42-14.32-18.42-20.28-8-6.75-16.32-11.82-18-24.13-.89-6.54-9.25-11.69-12.26-18.36-9.15-20.29-18.22-40.71-25.58-61.69-4.63-13.22,3.27-24.26,12-33.7,2.19-2.37,7-5.14,9.17-4.24,21.38,8.93,42.41-6.43,63.4-.44,6,1.7,12.45,4.6,16.65,8.93,8.63,8.89,17.19,18.35,23.34,29,6.73,11.65,10,25.26,16,37.37,16.23,32.52,46.44,42.66,79.32,48.35a336.57,336.57,0,0,1,33.43,7.39c17.34,4.86,25.06,17.69,28.28,34.71,2.77,14.58,6.94,28.9,10.73,43.27,2.25,8.53,2.27,15.24-7.43,19.91C2053.59,828,2045.19,834.39,2037.25,839.43Z" transform="translate(-253.43 -236.78)"/><path d="M1728.28,2235.69c-33.93,2.51-67.82,6.31-101.78,7-19.74.42-39.58-4.08-59.38-6.36-32.64-3.74-65.34-7-97.89-11.41-17.12-2.32-34-6.51-50.94-10.08-21.35-4.51-43.14-7.72-63.87-14.25-37.65-11.87-78.22-17-110.65-41.88a123.4,123.4,0,0,1-28.72-31.84c-10.4-16.58-.13-40.2,23.24-51.07,26.54-12.35,53.91-23.54,81.9-32,35.92-10.89,72.54-19.9,109.36-27.22,31-6.18,62.71-10.07,94.28-12.62,32.47-2.62,65.17-3.12,97.76-3.19,28.75,0,57.5,2.26,86.25,2.49,9.58.08,19.16-3.19,28.79-4.61,3.33-.49,7.75-1.35,10.07.27,19.34,13.4,42.28,9.46,63.47,13.5,36,6.87,72.77,10.62,108.48,18.83,45.43,10.45,90.1,24.19,135.18,36.19,18.46,4.91,40.26,26.72,41.93,43,3.09,30-6.28,50.13-29.58,61.14-26.62,12.57-53.43,24.05-84,23.85-11-.08-22,5.68-33.18,8-35.37,7.45-70.74,15-106.27,21.6-21.47,4-43.18,6.85-64.88,9.44-16.36,1.95-32.88,2.67-49.33,3.93C1728.41,2237.53,1728.34,2236.61,1728.28,2235.69Zm-20.9-88.62c-7-2-12.36-3.16-17.39-5.05-10.63-4-19.41-.22-25.08,8-3.25,4.72-4.78,16.86-3.45,17.45,7.21,3.19,16.33,6.66,23.35,4.74,15.33-4.18,26.44-2.58,36.28,11.05,3.21,4.44,14,8.59,17.44,6.49,5.6-3.45,10.46-11.84,11.2-18.63,1.63-14.94.89-30.19.35-45.29-.33-9.59,2.89-14,12.93-13.5s20.25.86,30.19-.32c4.86-.58,11.45-3.85,13.2-7.72,1.27-2.81-3.91-8.77-6.6-13.09-4.09-6.57-8.45-13-12.83-19.38-2.65-3.86-5.56-7.53-8.36-11.29-2.14,3.85-4.22,7.74-6.44,11.55-2.07,3.56-4.59,10.12-6.39,10-5.34-.52-10.9-3-15.4-6.14-2.35-1.63-1.75-7.27-4.07-9.25-5-4.24-10.7-9.3-16.68-10.16-4.41-.64-13.24,4-14,7.68-4.32,19.64-18.1,20-33.39,18.89-4-.29-8.31-.84-12,.27-3.25,1-7.43,3.62-8.31,6.43s.59,8.48,3,10.09c4.69,3.19,10.57,5.82,16.17,6.32,27.84,2.45,28.73,3.09,27.73,30.2C1708.61,2139.33,1708,2142.26,1707.38,2147.07Zm-301.73,8.86c16.11,11.19,27.5,21.18,40.61,27.68,15.92,7.89,28.88-1.68,29-19.68.16-20.62-.44-41.25-.12-61.87.15-10.15-4.55-17-13.66-18.71-12.16-2.28-24.81-1.79-37.07-3.67-4.51-.69-8.94-4.2-12.64-7.34-4.72-4-8.83-12.8-12.91-12.62-7.38.32-17.28,3.87-21.14,9.5-6,8.65-11.44,13.33-22.17,14.62-5.59.68-12.39,6.9-14.76,12.31-1.21,2.75,5.29,10.67,10,13.77,7.78,5.16,10.9,10,7.49,19.52a218.79,218.79,0,0,0-9,34.41c-.56,3.06,2.79,8.94,5.61,9.93s9-1.23,10.85-4c7.54-11.09,14.93-22.48,20.65-34.58,11.51-24.33,16.28-27.39,42.12-25.91,12.53.72,16.69,8.59,16.67,18.56,0,9.42-1.72,18.92-15.71,19.1C1422.89,2147.05,1416.41,2151.68,1405.65,2155.93Zm142.82.78c0,9.35-.68,16.71.16,23.91,1.14,9.75,3.88,19.89,16.44,19.24,11.68-.61,19.87-6.16,18.9-20-1.29-18.33-2-36.7-3.17-55-.57-9,1.27-15.33,9.86-21.25,19.13-13.16,18.35-16-1.84-27.45-3-1.69-5.38-4.5-7.89-6.94-15.93-15.45-20.4-15.48-34.08,2.12-5.28,6.79-9.86,9-18.82,7-7.21-1.63-16,.14-23,2.95-3.74,1.49-7.63,8.67-7.16,12.79.4,3.45,6.62,7.84,11,8.88,6.7,1.6,14,.49,21,.89,10,.57,15.66,5.09,10.83,15.49-5.89,12.67-12.76,24.89-19.23,37.3-2.89,5.55-5.86,11.06-8.7,16.42C1532.91,2183.23,1533.85,2160.15,1548.47,2156.71Zm388.3,18.09c4.83-8,10-14.56,12.94-22,7.06-18,12.86-36.5,19.53-54.66,4.55-12.4,1-19.22-12.09-21a73.67,73.67,0,0,0-15.07-.15c-15.1,1.13-28.45-1.47-39.18-13.7-6.65-7.59-12.35-3-18.93,2.53-6.2,5.19-14.78,7.58-22.36,11.09-5.58,2.58-14.74,3.7-16.22,7.71-4.67,12.68-8,26.37-8.44,39.78-.12,3.87,11,9.41,17.78,11.38,2.09.61,9.31-7.7,10-12.51,1.83-13.26,8.12-18.42,21.14-17,6,.64,12.05.17,18.09.12,12.82-.1,18.64,4.25,17.06,18.91C1919.18,2142.21,1918.22,2160.22,1936.77,2174.8Zm-295.48-12.05c.27-15.12-9.08-24.89-21-25.28-14.17-.46-23,5.93-23.46,16.87-.43,11.44,14,24.68,26.76,24.62C1636.57,2178.91,1640.25,2170.37,1641.29,2162.75Zm157.34-6.07c.55-10.17-3.36-16.2-14.45-16.21-13.1,0-25.33,8-23.78,16.92,2.44,14,15.84,13.27,25.42,15C1795.87,2174.17,1799.13,2165.92,1798.63,2156.68Zm8-90.48,5.59,5.77,13.25-9.09-9.67-9.8Z" transform="translate(-253.43 -236.78)"/></svg>