<svg id="Calque_1" data-name="Calque 1" xmlns="http://www.w3.org/2000/svg" viewBox="0 0 1808.91 2540.3"><path d="M940.5,1153.71c0-81.6.36-159.39-.22-237.18-.17-22.87,14.87-20.06,29-19.81,97.56,1.69,195.11,4.43,292.68,5,134.72.85,269.44.18,404.17,0,98.12-.11,196.29-2.24,294.36-.06,76.44,1.71,143.59,33.47,205,77,65.25,46.3,103.06,111.87,129,186.08,26.27,75.07,32.1,152.75,25.62,230.45-11.46,137.42-53.7,261.14-176,342.56-61.88,41.2-130.74,63.88-204.46,64.28-195.13,1.06-390.28-1-585.42-1.54-68.91-.21-137.86-1.14-206.73.65-68.2,1.76-120.74,34.24-148.87,95.9-33.76,74-35.29,150.89,8.81,221.69,32,51.38,80.89,78.62,143.93,78.59,118.53,0,237.07,1.45,355.61,2.58,11.26.11,22.5,2.24,35.7,3.63,0,78.8,0,155.86,0,232.93,0,18-10.63,22-26.13,21.87-56.84-.31-113.68-.07-170.52-.13-75.47-.08-151.28,4.31-226.34-1.3-171.42-12.82-325.09-102.95-383.92-285.09-31.32-97-33.46-196.75-15.4-297.87,15.92-89.16,54.78-164.81,121.25-224.46,57-51.13,125.28-84.89,201.32-96.37,53.78-8.12,108.78-10.43,163.29-11.06,83.23-1,166.5,2.21,249.76,2.81,98,.7,196,.54,293.94.72,39.85.08,79.74,1.18,119.56-.07,117.23-3.68,186.17-87.7,181.84-205.76-1.52-41.39-10.54-79.44-37.93-113.27-34.18-42.2-77.73-64.59-130.19-65.5-110.56-1.91-221.18,0-331.76-.76-154-1-308-3.27-462-4.48-39.87-.32-79.77,1.63-119.65,1.74C958.88,1157.63,947.87,1154.75,940.5,1153.71Z" transform="translate(-513.65 -229.85)"/><path d="M1919.6,1221.8c0,35.72.46,68.22-.1,100.7-.82,46.82-2.84,93.61-3.36,140.43-.17,16-6,21.59-22.12,21.55-92.09-.21-184.18.72-276.27.71q-200.64,0-401.28-.81c-111.7-.35-223.85,5.19-335-3.11-117.67-8.79-213.38-66.82-283.34-163.75C538.59,1235,518.7,1140.25,514.34,1041c-5.05-114.86,16.9-223,85.17-318,52.23-72.74,124.26-118.46,208.41-145.9,94.07-30.68,191.2-16.08,287.18-18,24.68-.48,49.39,1.38,74.09,1.68,84.85,1,169.69,2.12,254.55,2.67,67,.43,134,.19,201,0,23.72,0,38.78-14.38,37.67-37.3-1.06-21.83-12.32-32.74-35.9-32.76-143-.14-286-1.77-429-1.29-25.49.08-34.43-6.91-33.58-32.79,2.22-67.21,2.82-134.49,2.78-201.74,0-19.56,3.77-28.27,26.32-27.78,70.93,1.54,141.92-.34,212.85.91,39.87.7,79.64,5.85,119.51,7.31,29.29,1.07,59,2,88-1.55,66.28-8.22,127.27,5.43,186.11,35.5,96.71,49.43,159.94,180,140.23,286.38-10,53.85-19.33,106.81-45.35,156.34-43.51,82.8-110.07,122.79-203.28,120.71-102-2.27-204-4.48-306-5-92.67-.46-185.36,1.54-278,2.17-48.7.34-97.64-3-146.07.67C856.89,841.12,800.4,900.11,792,1003.73a294.64,294.64,0,0,0,7.67,91.93c19.93,81.87,83.75,123.84,164.47,125.7,86.11,2,172.3.25,258.46.64,109.8.5,219.6,2,329.41,2.13,80.5.06,161-1.64,241.5-2.27C1835.66,1221.53,1877.78,1221.8,1919.6,1221.8ZM1428.84,441c32.6-.29,68.1-37.34,66.78-69.7-1.4-34.45-41.61-69.55-77.55-69.6-37.26-.06-65.28,43.09-64.35,68.86C1355.1,409.29,1389.38,441.34,1428.84,441Z" transform="translate(-513.65 -229.85)"/><path d="M1121.71,2527.62h98.19c88.82,0,177.68-1.53,266.46.47,76.24,1.73,128.3-36.54,156-101.1,35.45-82.64,31.83-166.77-29.3-239-31.43-37.12-72.76-60.37-124.18-60.22-108.36.3-216.74-.41-325.09.53-20.81.18-27.21-4.93-26.69-26.71,1.64-67.47,1-135,.35-202.5-.16-17,5.56-23.94,23-23.79,118,1,236,4.84,353.82.85,77.36-2.62,144.1,19.91,206.87,60.34,132.24,85.17,199.49,206.52,206.12,364.09,3.68,87.25-6.93,171-45.47,249.09-54.32,110.09-143.33,181.14-260.06,217.23-14.72,4.55-31.61,2.69-47.5,2.73q-191.28.53-382.58.49c-15,0-30.14-3.31-45-2.28-20.5,1.43-25.57-7-25.3-26.33C1122.31,2671.62,1121.71,2601.69,1121.71,2527.62Z" transform="translate(-513.65 -229.85)"/></svg>