<svg xmlns="http://www.w3.org/2000/svg" viewBox="0 0 2502.9 2320.78">
  <path
    d="M2014.25,351.64c33.12,0,66.24.3,99.35-.09,29.88-.36,59.79-2.74,89.62-1.9,32.39.9,64.67,5.5,97.06,6.58,24.77.83,49.63-2,74.45-1.94,22.22,0,44.6.32,66.63,2.86,38.89,4.48,75.72,17.16,109.77,36.11a468.87,468.87,0,0,1,63.58,43.1c34.9,27.77,63.85,61.82,86.63,99.75a350.14,350.14,0,0,1,44.18,118.64c7.54,42.25,7.71,84.92,1.55,128.09-5.4,37.8-15.38,74.43-32.75,106.92-23.26,43.51-49.23,86.74-92.19,115.76-17.78,12-33.06,27.83-51.16,39.24a389,389,0,0,1-60.38,30.63c-22.85,9.31-46.81,15.9-70.33,23.52a38.18,38.18,0,0,1-10.86,2c-52.45,1-104.91,1.74-157.37,2.79-26.56.53-53.12,1.78-79.68,2.26-21.13.38-42.27.08-63.4.08-46.46,0-92.92-.32-139.38.07q-105.22.9-210.44,2.67c-13.81.21-27.61,2.29-41.4,2.14-29.78-.3-59.55-2.15-89.32-2.13-31.93,0-63.85,2.09-95.78,2-16.53,0-33.05-2.82-49.59-4.19a116.46,116.46,0,0,0-15.06-.29c-13,.6-25.92,2.23-38.87,2.1-52.92-.53-105.83-2.19-158.74-2.21-50,0-100.11,1.91-150.17,2.17-25.49.13-51-2.23-76.48-2.06-13.56.09-27.21,2.6-40.57,5.27-3.87.77-6.88,5.86-10.29,9,3.13,2.91,6,6.25,9.48,8.57,2.25,1.49,5.47,2,8.27,2,39.38.93,78.76,2.3,118.14,2.36,33.56.05,67.15-2.81,100.67-1.93,39.07,1,79,.34,116.79,8.73,27.39,6.08,55.21,15.62,78.41,38.45,34.25,33.72,52.81,73.15,63.79,117.93,1.28,5.25,0,11.39-1.15,16.92-4,19.83-5.79,40.6-13.25,59.08-7.89,19.54-20.18,37.66-32.57,55-13.07,18.24-30,32-50.57,43-19.13,10.26-38.41,14.92-59,16.2-38.74,2.41-77.55,3.79-116.33,5.4-23.22,1-46.45,2.17-69.67,2.18-20.16,0-40.31-1.85-60.47-2.25-21.11-.42-42.24-.1-63.36-.1-57.33,0-114.66-.52-172,.25-25.31.33-50.19,3.14-75.78-2-19.51-3.9-40.46.06-60.7-1-34-1.74-67.9-6.26-98.08-23.33-26.54-15-45.84-36.31-57.87-65.73C567.27,1375,560.22,1349.87,564,1323c2.78-19.87,8.42-39.38,13.44-58.88,11.29-43.87,23.26-87.56,34.44-131.45,15.12-59.37,29.34-119,44.74-178.26,10.65-41,22.46-81.79,34.07-122.58,17.26-60.61,34.89-121.11,52.18-181.71,8.91-31.25,17.53-62.6,26.08-94,5-18.21,9.48-36.55,14.27-54.82,7.49-28.57,22.87-53.11,41.19-75.55,18-22.09,40.24-40.65,65.89-52.54,20.19-9.36,41.84-16.82,65.41-17,29.21-.18,58.39-4,87.6-4.34,33.16-.37,66.34,2,99.51,2.05,26.35.07,52.71-2.3,79.06-2.16,54.5.28,109.13-.48,163.47,2.91,55.15,3.44,110.2,0,165.24,2.11a91,91,0,0,1,26.62,4.81c18.21,6.49,36.56,13.08,53.73,21.82,25.68,13.08,43.8,35.42,56.58,60,16.88,32.44,33.32,66.5,28.89,104.86-2.9,25.14-7.74,49.64-21.65,72.61-11.44,18.91-25.86,34.25-40.87,49.45-24.68,25-56.39,37.08-89.83,44.28-13.7,3-28.23,2.53-42.4,2.8-73,1.39-146.07,3.36-219.11,3.37-36.65,0-73.29-4-110-5.59-8.61-.38-17.31,1.62-26,2.23-14.15,1-28.49.76-42.42,3-6.26,1-11.74,6.87-17.58,10.53,5.72,3.07,11.32,8.53,17.17,8.81,32.16,1.51,64.38,1.68,96.58,2.44,38.94.93,77.87,2.08,116.81,3,40.85.94,81.71,2.11,122.57,2.45,51.1.42,102.2.29,153.3,0,16.33-.09,32.65-2.21,49-2.16s32.52,2.43,48.78,2.44c20.89,0,41.77-1.53,62.66-1.9,8.19-.14,16.42,1.72,24.62,1.64,69.4-.75,138.8-1.8,208.2-2.61,18.69-.22,37.4.35,56.09.14,64.24-.73,128.47-1.8,192.7-2.34,12.87-.11,25.79,2.62,38.61,2.15,25-.91,50-2.78,75-5.1,7.09-.66,16.27-2.52,16.37-12.08.1-8.72-6.49-12.41-15.1-13.15-12.34-1.07-24.58-3.7-36.92-4.18-22-.84-43.93-.57-65.9-.73-3.37,0-6.73.14-10.09.14-35.48,0-70.95-.32-106.42.1-39.34.46-78.66,1.66-118,2.4-13.13.24-26.27-.23-39.4.09-27.19.66-54.37,2.08-81.56,2.36q-60.79.61-121.62,0c-19.21-.18-38.43-1.3-57.61-2.51-14.12-.89-22-8.55-20.29-22.8a418.79,418.79,0,0,1,11.35-60.48c12.22-44.85,23.69-90.1,39.62-133.66,11.92-32.56,27.07-64.93,59.29-84.49,7.73-4.69,13.59-12.35,20.89-17.87,25.82-19.52,56-30.76,87-35.49,27.43-4.17,56-.87,84-.87C2014.26,355,2014.25,353.32,2014.25,351.64Z"
  />
  <path
    d="M1077.08,2265.61c-24.73,1.21-49.45,2.72-74.18,3.46-8.22.24-16.51-2.25-24.75-2.15-12.06.14-24.09,1.8-36.16,2.25-27.78,1-55.56,2.16-83.35,2.43-13.29.13-26.59-1.68-39.9-2.41-5.15-.28-10.34,0-15.51,0q-36.12,0-72.24,0c-31.69,0-41.5,5.48-50.72,34.88-9.95,31.75-16.77,64.46-25.95,96.47-11,38.34-23.06,76.38-34.66,114.55-2.63,8.63-3.86,18-8.18,25.74-11.91,21.21-22.65,43.86-38.51,61.84-14.78,16.78-34.32,30.43-54,41.63a178.93,178.93,0,0,1-100.23,23.43c-40.19-2.35-76.38-16.27-107.67-41.81-26.44-21.58-44.86-49.86-51.83-82.36-7.8-36.35-6.92-73.33,4.69-110.36,16.86-53.75,29.51-108.81,44.56-163.15,11.19-40.41,23.86-80.41,34.9-120.85,7.8-28.59,13.85-57.66,21-86.45,2-7.93,5.4-15.49,7.4-23.41,6.54-26,12.48-52.13,19.12-78.09q13.31-52.1,27.34-104c11-40.49,22.6-80.8,33.47-121.32q7.68-28.59,13.54-57.66c5.37-26.67,20.33-48.51,34.65-70.58,27.63-42.58,69-65.58,116.12-80.51,20.64-6.54,41.5-8,62.82-7.44,32.69.82,65.39,1.52,98.09,1.86,9.53.1,19.08-1.89,28.6-1.76,39.81.58,79.61,2.25,119.41,2.28,37.08,0,74.17-2.14,111.25-2,17.77,0,35.53,4.44,53.3,4.44,46.59,0,93.19-2.06,139.78-1.84,17.22.08,35.39,1.5,51.36,7.22,18.26,6.54,35.74,17,51.4,28.62,16.5,12.27,33.07,26.13,44.77,42.71,11.07,15.69,18.12,35.23,23,54.09,9.38,36.57,13.33,74.46-1.51,110.3-10.37,25-22,50.41-48.18,65.08-16.09,9-29.5,23-45.93,31.15-19.84,9.8-40.92,17.27-64.23,16.68-15.23-.39-30.54,3-45.84,4.37-2.81.26-5.71-.89-8.59-1-9.6-.43-19.21-1.15-28.79-.92-12.58.31-25.13,1.79-37.7,2.1-15.21.39-30.44.22-45.65,0-72.94-.79-145.87-1.82-218.81-2.36-14.15-.11-28.52.41-42.35,3-5.25,1-9.26,8.62-13.84,13.22,5.73,3,11.43,8.39,17.18,8.44,23.42.21,46.86-1.93,70.28-1.79,12.31.08,24.61,4.49,36.92,4.47,33.51,0,67-2.11,100.52-2,41.06.07,82.14.89,123.15,2.78,9.76.45,19,7.54,28.92,9.71,39.17,8.57,63.87,36.07,90.64,63.17,25.58,25.89,27.71,59.4,38.4,90,4.14,11.85.93,27.63-2.71,40.56-7.1,25.23-14.53,50.87-26.18,74.16-11,22.11-27.39,41.69-52.84,50.16-3.1,1-6.44,2.39-8.72,4.59-17.23,16.58-39.09,21-61.52,22.78-25,2-50.14,2.64-75.22,3.87C1077.15,2267.14,1077.11,2266.37,1077.08,2265.61Z"
  />
  <path
    d="M1761.15,2309.63c45.83,0,85.64-.51,125.42.21,19.49.36,38.93,4,58.42,4.37,21.74.39,43.52-1.31,65.28-2.06,44.42-1.54,84.76,12.13,118.75,39.24,16.95,13.51,30.55,33.31,40.67,52.84,14.95,28.87,27.51,59.75,23.64,93.65-1.53,13.39-5.74,26.62-9.91,39.54-15.7,48.7-42.73,88.6-90.34,111.3-25.53,12.16-52.22,19.61-81.09,19.44-34.4-.2-68.81,2.1-103.21,2.09-35.6,0-71.19-1.48-106.78-2.34q-51.09-1.23-102.17-2.52c-35.24-.85-70.47-2.48-105.7-2.35-59.56.22-119.22-.33-178.61,3.19-31.31,1.85-61.5.83-90.88-8.8-13.75-4.5-27.64-11.73-38.6-21.08-35.57-30.39-56.82-69-55.76-116.74.41-18.32,5.82-36.7,10.3-54.72,10.21-41.16,21.39-82.08,31.93-123.17q12.85-50.16,25.13-100.47c10.78-43.9,21.16-87.9,32.06-131.77,8.51-34.29,17.17-68.56,26.5-102.64,7-25.74,15.82-51,22.76-76.77,10.47-38.9,19.76-78.12,30-117.08q17.27-65.68,35.46-131.11c6.08-21.71,10.54-44.56,20.76-64.3,28.5-55.06,75.7-89.49,136.42-96,31.91-3.44,68.83-6.33,97.69,19.21,5,4.44,12.65,5.8,18.78,9.13,6.43,3.5,13.92,6.42,18.51,11.71,34.57,39.81,60.25,84.41,65.33,137.87,1.53,16.11-1.76,33.19-5.52,49.2-8,34-17.8,67.49-26.67,101.25q-18.82,71.63-37.33,143.32c-9.21,35.83-17.85,71.8-27.13,107.61-9.1,35-18.75,70-28,105-5.37,20.23-10.77,40.47-15.71,60.81-3.85,15.87,2.89,29.59,19,32.5C1709.05,2304.23,1738,2306.73,1761.15,2309.63Z"
  />
  <path
    d="M457.6,740.2c23.33,0,46.66-.29,70,.07,39.32.59,78.64,1.63,118,2.41,23.14.46,33.46,13.53,27.75,35.66-14.89,57.68-29.68,115.38-44.92,173-9.47,35.78-17.77,72-30.18,106.8-9.53,26.7-19.08,42-54.37,40.64-30.41-1.2-60.91.1-91.36-.34-41.87-.6-81.76-11.3-118.7-30-25.28-12.79-41.55-36.47-57.71-59.63-19.05-27.29-23.82-59-27-90.07-2.78-27.5,5.31-54.9,19.85-79.16,10.13-16.91,21.51-33.07,32.47-49.47,1.84-2.74,3.93-6,6.71-7.35,25.68-12.69,50.59-28.07,77.64-36.5,22.54-7,47.65-5.76,71.62-8.17C457.45,738.79,457.52,739.49,457.6,740.2Z"
  />
  <path
    d="M1948.88,1171c-2.8,11.85-6.32,28.3-10.63,44.55-8,30.14-15.85,60.34-24.86,90.18-9.38,31-17.09,63.16-31.15,92.08-10.19,21-23.64,41.83-46.69,54.54-19.69,10.85-36.37,27.42-59.85,30.61-27.5,3.73-54.5,14.06-83,4.64-10-3.31-21.91-1.19-31.7-4.86-54.24-20.3-90.9-57.52-108.46-113.59-12.62-40.3-8.13-79.1,4.66-118.19,4.85-14.81,6.67-30.58,10.92-45.62,4.58-16.18,8.39-33.07,16.18-47.7,8.7-16.32,26.8-18.47,43.71-18.61,47.29-.4,94.58.15,141.87-.25,27.67-.24,55.34-2.52,83-2.13a721.72,721.72,0,0,1,73.44,5C1945.35,1143.91,1948.87,1149,1948.88,1171Z"
  />
</svg>
