<svg xmlns="http://www.w3.org/2000/svg" viewBox="0 0 2670.25 2124.8">
  <path
    d="M591,1020.8c68.36,0,136.74-.77,205.09.19,95,1.33,190,4,285,6,28.11.61,53.35,18.85,56.84,41.17,3.44,22-16.26,56.44-38.51,63.93a125.18,125.18,0,0,1-38.9,6.49c-129.47.46-258.95,1.09-388.41.05-127.72-1-255.42-3.85-383.12-6-29.79-.5-55.63-20.09-58.39-43.64-4-34.49,10.42-53.75,48-61.93,14.81-3.21,30.08-5.88,45.15-6C412.82,1020.52,501.9,1020.8,591,1020.8Z"
    transform="translate(-143.54 -417.34)" />
  <path
    d="M620.26,1337.76q-192.52,0-385.06-.16c-10,0-21.24.17-29.83-4-23.07-11.23-46.79-24.21-42.71-55.88,3.67-28.4,34-51.7,65.94-51.73q236-.27,472-.09c88,0,176-.42,264,.3a410.89,410.89,0,0,1,66.91,6.54c25.54,4.46,40.69,27.6,38.16,54.22-2.49,26.13-27,50.67-51.89,50.71Q819,1338,620.26,1337.76Z"
    transform="translate(-143.54 -417.34)" />
  <path
    d="M825.42,1536.64c-82.31,0-164.63-.76-246.93.26-58.92.73-117.81,5.62-176.71,5.48-70-.17-140-3.08-210-6.2-24.55-1.09-48.8-28.86-48.25-50.89.71-28.7,25.37-53.55,55.49-54.16,93.22-1.9,186.45-4.65,279.67-4.42,168.82.42,337.63,3.46,506.44,3.84,50.08.12,75.51,34.73,59.11,79.77-11.31,31.07-41.06,31-66.8,32-50.62,1.85-101.35.54-152,.54Z"
    transform="translate(-143.54 -417.34)" />
  <path
    d="M600.27,1629.87c99.34,0,198.68-.62,298,.28,44.15.4,88.4,2.48,132.36,6.49,26.81,2.45,40.11,19.7,39.29,48-.91,31.28-17.06,54-43.4,56.92-7.16.79-14.48.18-21.72.18q-349.21,0-698.44-.26a614.23,614.23,0,0,1-83.74-6.11c-34.94-4.89-56-27.29-54.21-53.72,2-29.44,28.61-51.44,65.55-51.58C356.07,1629.58,478.17,1629.88,600.27,1629.87Z"
    transform="translate(-143.54 -417.34)" />
  <path
    d="M569.31,1940.62c-87,0-174,.62-261-.56-16.49-.22-35.9-3.47-48.54-12.73-14.59-10.68-36-21-26.74-49.29,9.45-28.88,28.83-41.85,56-42.66q153.14-4.59,306.35-6.4,139-1.47,278.09.33c69.77.79,139.52,3.49,209.27,5.75,32.26,1,56.43,24.28,55.28,52-1.25,30.26-26,53.48-57.41,53.55-52.1.12-104.21,0-156.32,0Z"
    transform="translate(-143.54 -417.34)" />
  <path
    d="M2079.86,834.35q282.34,0,564.7-.13c25.29,0,44.93,9.81,52.85,33.42,8.91,26.56-4.42,53.76-31.53,65.89-15.41,6.91-33.16,12.1-49.84,12-50.27-.2-100.53-4-150.81-5-17.1-.33-34.3,5.55-51.42,5.37q-226-2.34-452-6c-30.78-.44-53.34-24.11-53-55,.27-24.44,25.73-49.17,51.13-50.76,39.93-2.5,79.82-5.68,119.73-8.58C2079.73,828.57,2079.79,831.46,2079.86,834.35Z"
    transform="translate(-143.54 -417.34)" />
  <path
    d="M913.07,933.79H686.39q-98,0-196.07,0c-38,0-65.4-19.83-67.1-48.11-2.51-41.57,20.51-55.26,62.81-63.32,13-2.48,26.84-.43,40.3-.43,136.57,0,273.14-.7,409.71.28,76.16.54,152.3,3.65,228.44,6.06,28.37.9,55,27.43,54.22,52.72-.82,27.74-27,52.53-57.39,52.67C1078.56,934,995.81,933.79,913.07,933.79Z"
    transform="translate(-143.54 -417.34)" />
  <path
    d="M2554.26,2148.5c-34.67-3-69.3-7.67-104-8.39-28.48-.58-57.14,6-85.59,5.15-86.79-2.57-173.49-9.2-260.27-10.22-48.67-.56-97.4,7.25-146.16,10.5-26.39,1.76-47.66-11.71-53.17-35.66-3.48-15.1,3.47-37.35,13.83-49.51,9.76-11.46,30.08-19.4,45.81-19.48q332-1.83,664.08-.34c13.43,0,31.44,3.16,39.16,12,11.67,13.32,27,40.43,21.53,48.37-13.16,19-35.7,36.34-57.9,43.16-23.63,7.25-51.22,1.63-77.08,1.63Z"
    transform="translate(-143.54 -417.34)" />
  <path
    d="M558.7,2033.84H979.42c54,0,108.07-1.06,162,.58,18.65.56,41.36,2.69,54.4,13.51,12.5,10.38,21.86,33.72,20.09,50-2.78,25.66-26.8,40.08-51.25,40.67-54.7,1.33-109.51-1.78-164.28-2.42-13.84-.17-27.7,3.1-41.55,3.15-70.23.29-140.49,1.31-210.68-.53-38.57-1-77-10.33-115.5-10.16-42.58.2-85.14,9.72-127.69,9.6-19.15,0-41-10-56.8-21.85-30.67-23-21.37-62.21,15.75-76.32,5.65-2.15,11.37-5.59,17.12-5.73,25.86-.62,51.75-.27,77.63-.27Z"
    transform="translate(-143.54 -417.34)" />
  <path
    d="M962.5,734.91c-76.52,0-153,.58-229.54-.29-29.65-.34-59.36-3.08-88.86-6.35-24.23-2.68-48.76-32-46.65-53.23,2.82-28.21,26.34-51.5,54.79-51.79,64.51-.66,129-.32,193.56-.31q183.42,0,366.83.11c39.91,0,61.89,15.34,62.15,43.13.35,38.57-27.56,68.65-64.14,68.7Q1086.58,735,962.5,734.91Z"
    transform="translate(-143.54 -417.34)" />
  <path
    d="M2194.55,629.26h273c6.21,0,13.75-2.26,18.38.45,16.63,9.72,38.79,17.79,46.49,32.82,7.85,15.34-1.7,34.79-17.8,50.7-21.73,21.48-44.4,28.58-73.75,28.33-120-1-240,.21-359.94-.71-57.72-.45-115.42-3.71-173.11-6-31.3-1.25-53.27-23.55-54-54-.59-24.82,26.72-51.26,55.22-51.4C2004.23,629,2099.39,629.26,2194.55,629.26Z"
    transform="translate(-143.54 -417.34)" />
  <path
    d="M2474.17,1437.21c92.07,0,184.14-.21,276.21.1,35.18.11,55.28,14,59.81,39.54,4.29,24.18-24,63.47-53.61,65-62.56,3.13-125.36,1.41-188.06,1.6-9.29,0-18.59-.52-27.89-.52q-172.24-.06-344.48-.06c-36.65,0-56.9-17.5-57.37-48.8-.47-31.71,24.86-56.59,59.19-56.71C2290,1437,2382.11,1437.21,2474.17,1437.21Z"
    transform="translate(-143.54 -417.34)" />
  <path
    d="M2564.05,1747.73c-70.66,0-141.33.76-212-.24-55.83-.8-111.64-3.83-167.46-5.73-30.61-1-44.23-13.2-45.83-41.41-1.79-31.5,14.64-56.92,42.12-57.44,80.52-1.52,161.1,0,241.64-1,51.46-.62,102.9-5.1,154.34-5,57.61.12,115.21,3.47,172.82,5.35,7.25.24,15.82-2.37,21.48.65,13.6,7.24,32.76,14.62,36.89,26.42,5.35,15.28,4.87,32.33-15.41,49.28-28,23.36-55.12,30.49-88.82,29.63-46.57-1.19-93.19-.3-139.79-.3Z"
    transform="translate(-143.54 -417.34)" />
  <path
    d="M2469.87,1841.18c91.07,0,182.15-.19,273.22.09,38.94.12,61,13.74,69.06,42,5.1,17.88-1.92,24.17-18.56,36.58-59,44-124.18,24.75-186.47,26.07-136.55,2.88-273.2.93-409.8.86-36.25,0-62.73-21.39-64.44-51.58-1.48-26.11,30.3-53.75,63.78-53.9C2287.73,1840.92,2378.8,1841.18,2469.87,1841.18Z"
    transform="translate(-143.54 -417.34)" />
  <path
    d="M2523.26,2309.25c-5.75.95-14.3-.16-16.68,3.15-26.52,36.87-65.08,32.47-103.1,32.35-132.48-.42-265,.31-397.43-.45a1121.07,1121.07,0,0,1-120.71-7c-10.25-1.17-24.83-13.43-27.22-23.12-3.75-15.16-5-39,3.81-47.39,14.94-14.15,38.53-26.49,58.63-26.71,177-2,353.94-1.34,530.92-.87,16.11,0,33.23,1.51,48.1,7.06C2527.7,2256.78,2525.81,2282.07,2523.26,2309.25Z"
    transform="translate(-143.54 -417.34)" />
  <path
    d="M1280.3,2301.87c-4,1.1-10.37.86-12.11,3.58-25.35,39.5-65.06,32.94-102.84,32.94q-252.84-.06-505.68.11c-22.09,0-44.4-4.2-49.18-27.23-3.66-17.67-2.76-46.35,8-54.69,18.52-14.31,46.25-22.44,70.29-22.86,123-2.14,246.09-1.6,369.14-.71,54.58.4,109.12,4.42,163.7,5.75C1265.72,2239.83,1281.45,2255.82,1280.3,2301.87Z"
    transform="translate(-143.54 -417.34)" />
  <path
    d="M1554.42,940q-74.39,0-148.78,0c-46.39,0-68.33-17.41-68.69-54.26-.36-36.09,23.91-57,70.14-57.39q139.47-1.07,279,.07c21.21.14,42.58,2.75,63.55,6.17,23.25,3.8,34.29,18.81,35.08,42.67.87,26.41-8.55,48-33.67,55.56-21,6.29-44.16,6.41-66.41,6.9C1641.22,940.69,1597.81,940,1554.42,940Z"
    transform="translate(-143.54 -417.34)" />
  <path
    d="M1777,1542.85q-77.64,0-155.26,0c-37.79,0-52.3-12.29-54.76-46-2.55-35,12.57-57.7,46.92-58.79,74.67-2.36,149.46-1,224.2-1q54.33,0,108.67.15c36.45.07,66.63,21.64,67.62,48.32,1,26.16-35.55,56.84-69.72,57.17C1888.76,1543.25,1832.86,1542.85,1777,1542.85Z"
    transform="translate(-143.54 -417.34)" />
  <path
    d="M1793.28,1636.09c49.68,0,99.54-2.52,148.94,1.16,21.6,1.61,48.4,10.4,62,25.61,25.74,28.78-1.22,74.32-43.31,78.71-7.17.74-14.48,0-21.72.18q-157.21,2.74-314.43,5.59c-28.59.53-53.86-19.29-57.7-45.9-3.66-25.43,17.16-56.66,44.2-58.81,60.49-4.82,121.25-6.46,181.89-9.4Z"
    transform="translate(-143.54 -417.34)" />
  <path
    d="M1560.55,2031.27c54.81,2.91,110.14,6.17,165.5,8.68,36.18,1.63,57.19,17.23,58.39,44.88,1.12,25.83-24.8,53.79-56.07,54.05-62.68.52-125.39-3.15-188.09-3.27-50-.1-100.09,2.82-150.15,3.76-29.44.55-51.33-17.59-53.12-42.56-1.77-24.75,24.15-54.92,50.39-56.53C1444.82,2036.75,1502.3,2034.24,1560.55,2031.27Z"
    transform="translate(-143.54 -417.34)" />
  <path
    d="M1924.47,536c-32.1,0-64.2.16-96.29,0-38.09-.25-62.26-22.2-62.35-56.23-.1-38.18,18.05-54.49,60.52-55.68,61.92-1.74,123.82-4.85,185.75-5.63a182.7,182.7,0,0,1,57.17,8.63c21.11,6.77,38.09,25.22,30.7,46.49-7.25,20.88-23.54,49.67-40.9,53.8-43.28,10.29-89.42,8.54-134.41,11.62Z"
    transform="translate(-143.54 -417.34)" />
  <path
    d="M1186.78,529.81q-49.69,0-99.4,0c-38.16-.06-65.77-21.78-67.21-52.81-1.21-26,27.36-57.46,59.66-58.28,77.6-2,155.3-1.65,232.92-.19,29.27.56,49.78,26.35,49,54.83-.8,31.56-23.87,55.35-57,56.2C1265.48,530.58,1226.12,529.8,1186.78,529.81Z"
    transform="translate(-143.54 -417.34)" />
  <path
    d="M1558.8,734.91c-38.26,0-76.52.35-114.77-.12-28.71-.36-47.78-16.75-51.09-42.52-4-31,9-55,37-62.18,18.45-4.73,38.06-6.47,57.19-6.74,57.89-.84,115.8-.52,173.7-.23,41.27.2,68.06,21.83,67.72,53.8-.39,36.46-25.28,57.91-67.37,58Q1610,735,1558.8,734.91Z"
    transform="translate(-143.54 -417.34)" />
  <path
    d="M2226.41,1033.23c36.25,0,72.5-.35,108.75.11,33.21.41,57.87,20.22,58.44,45.92.57,26-30.48,58.37-58.86,59.43-70.12,2.61-140.27,5-210.43,6.14-41.06.66-67.14-22.28-66.34-55.15.85-35,25.74-56.34,65.9-56.43C2158.05,1033.16,2192.23,1033.23,2226.41,1033.23Z"
    transform="translate(-143.54 -417.34)" />
  <path
    d="M1551.14,2338.37c-35.17,0-70.35-.45-105.52.14-27.51.46-46.08-12.69-51.8-38.25-5.61-25.11,8.84-44.5,30.7-54.54a138.41,138.41,0,0,1,52.83-12.43c58.93-1.51,118-2.6,176.84.5,21.48,1.13,45.06,10.62,62.74,23.23,20.56,14.66,16,49.93-6.65,61.86-18.3,9.62-39.43,16.79-59.9,18.68C1617.56,2340.6,1584.25,2338.37,1551.14,2338.37Z"
    transform="translate(-143.54 -417.34)" />
  <path
    d="M1208.36,2428.81c37.49,2.92,76.2,5.49,114.8,9.12,26.08,2.45,43.61,23.16,42.11,43.52-1.23,16.73-20.28,39.52-36.77,46-23.32,9.12-51.54,6.87-77.7,7.27-35.93.55-71.9-1-107.85-1.58-24.8-.37-49.61-.12-74.38-.89-27.18-.84-40.18-18.27-41.61-42.67-1.46-24.84,24.4-49.46,51.19-51.59C1121,2434.55,1163.91,2431.89,1208.36,2428.81Z"
    transform="translate(-143.54 -417.34)" />
  <path
    d="M1916.86,2537.24c-35.2,0-70.41.11-105.61,0-34.53-.12-50.34-12.21-51.31-38.87-.81-22.48,22.48-52.5,45.46-53.91,54.34-3.34,108.81-4.78,163.24-6.51,21.72-.69,43.48-.3,65.22-.08,38.34.41,61,18.54,61.39,48.86.38,28.23-23.65,49.27-60.37,50.28C1995.57,2538.07,1956.2,2537.23,1916.86,2537.24Z"
    transform="translate(-143.54 -417.34)" />
  <path
    d="M1568.77,541.84c-23-8.83-47.87-14.71-68.71-27.21-30.31-18.17-18.33-71.09,11.8-84.95,35.74-16.43,71.12-9.15,105.56-.47,24.9,6.28,34,28.71,29.9,53.66-5.23,32.18-27.87,47.14-57.94,52.71-6,1.11-12.32.16-18.49.16Q1569.83,538.8,1568.77,541.84Z"
    transform="translate(-143.54 -417.34)" />
  <path
    d="M1559,2542.14c-21-5.75-48.37-5.14-61.84-18.51-32.69-32.43-12.35-71.34,25.16-82.14,27.2-7.83,59.16-3.83,88.11.64,23.54,3.64,40,20.3,37.11,47.93-2.34,22.07-28.87,45.61-53.12,47.06-11.33.67-22.73.11-34.09.11C1559.92,2538.87,1559.47,2540.5,1559,2542.14Z"
    transform="translate(-143.54 -417.34)" />
</svg>
