<svg xmlns="http://www.w3.org/2000/svg" viewBox="0 0 2597.57 2535.37">
  <path
    d="M2798.79,1519.11c-1.4,27.23-1.71,70.89-6.32,114.09-6.51,61-16.76,121.33-32.63,180.85-17,63.6-36.84,126-62.61,186.51-32.76,77-71.79,150.68-121,218.23-34.36,47.11-71.43,92.45-109.74,136.44a974.1,974.1,0,0,1-198.1,173.7c-55.81,36.83-113.15,71.67-171.78,103.78-37.58,20.57-78.12,36.3-118.48,51.05-46.81,17.11-94.34,32.83-142.55,45.3-42.83,11.08-87,17.13-130.62,24.94-26.61,4.77-53.3,9.19-80.1,12.71-12,1.57-24.24.81-36.37.66-61.54-.8-123.23.58-184.59-3.29-65-4.11-129.79-12.92-192.78-31.12-50.44-14.57-101.34-27.74-151.16-44.17-81.2-26.79-157.25-65.21-230.81-108.5a1262.2,1262.2,0,0,1-171.28-121.56c-49.17-41.26-95.55-85.24-137.73-134-47.3-54.65-92-111.16-128.81-173.2-28.9-48.73-55.74-99-79.08-150.61a1335.1,1335.1,0,0,1-58.77-155c-17-54.79-28.18-111.2-36.92-168.25-11.59-75.6-17.7-151.28-14.43-227.48,1.79-41.8,7.4-83.49,12.7-125.06,4.21-33.12,9.1-66.29,16.22-98.89,18.78-86,47.35-168.68,84.15-248.67C346,910.49,383.62,847.43,424.78,786.2c40.09-59.65,86.37-114.14,136.59-165.12,49.28-50,102.27-96,159.62-136.93C799.15,428.42,881.09,379,969.92,342.76c59.89-24.46,121.22-46.21,183.4-63.93,50.68-14.45,103.58-21.15,155.49-31.27,63.68-12.42,128.38-16.29,192.79-15,63.4,1.25,126.79,8.46,189.94,15.26,85.81,9.25,168.38,32.92,249.66,61.13,65.53,22.75,129.35,49.74,188.89,85.49,55.19,33.15,111.61,65.11,162.89,103.69C2344.72,537,2392.29,582,2439,627c66.89,64.48,121.89,139,171.21,217.52,19.88,31.64,35.18,66.13,53.35,98.89,34.13,61.52,59.51,126.81,79.19,193.95,15.95,54.36,28.26,110,38.85,165.68C2794.13,1368.87,2798.22,1435.77,2798.79,1519.11Zm-136.63-23.39c-4.61-46.58-9.33-102.59-15.89-158.38-7.13-60.52-22.8-119.26-42-176.95a1177.43,1177.43,0,0,0-74.12-174.69c-37.5-71.64-82.71-137.78-134.16-199.85-46-55.47-96.91-106.24-153.81-150.34-41.35-32-84.06-62.68-128.29-90.57-70.34-44.35-145.68-79.51-224.38-106.15-51.67-17.49-104.76-31.29-157.93-43.69C1698.41,387.36,1664,384.32,1630,381c-37.82-3.71-75.83-5.42-113.77-7.84-9.13-.59-12.55,4.5-12.35,13.24.26,11.1,0,22.21-.07,33.31-.39,62.88-.88,125.76-1.11,188.65-.07,17.72-2.76,20.17-20,21.13-40.53,2.24-81.57,2-121.39,8.75-51.54,8.77-102.69,21.31-152.91,36-65.22,19.08-126,49.18-184.43,83.87A840.26,840.26,0,0,0,889.1,856.86c-48.71,44-93.06,92.23-130.63,146.11-21.57,30.93-42.34,62.7-60.13,95.89-32.6,60.8-59.14,124.51-73.77,192.16-10.48,48.46-20.29,97.49-24.51,146.76-3.72,43.52.84,87.73,1.52,131.63.76,48.89,10.49,96.54,22.74,143.4,18,69,43.47,135.36,77.77,198.1,51.25,93.72,116.55,176,197.53,246,64.82,56,134.82,103.5,212.85,139.39,58.34,26.84,118.26,48.83,180.43,64.51,60.86,15.34,123.1,21.41,185.6,24.71,11.1.59,15.1,4,15,15.64-.53,72.45-.17,144.92-.51,217.37,0,10.1,1.72,16.13,13.55,15.67,30.51-1.18,61.14-.48,91.52-3,40.85-3.35,81.85-7.05,122.18-14.1,63.56-11.12,126-27.35,186.7-49.76,82-30.31,160.84-67.15,234.73-114.26A1135,1135,0,0,0,2305,2327c36.86-34.31,71-72,103-111a1077.77,1077.77,0,0,0,84-117.33c24.47-39.65,43.83-82.46,65.36-123.91,27.34-52.63,46-108.79,60.83-165.7,14.45-55.32,25.13-111.88,33.41-168.49C2658.07,1596,2658.41,1550.55,2662.16,1495.72ZM1362.46,439.66c0-14.68,0-29.36,0-44,0-8.93-4.26-14.54-13.56-13.51-18.34,2-36.92,3.42-54.84,7.55-45.93,10.58-91.55,22.5-137.3,33.9-58.47,14.57-113.69,38.05-168.16,63.1A1020.44,1020.44,0,0,0,818,586.34C786.57,609,755.84,632.85,726.39,658a947.17,947.17,0,0,0-72.58,69.68c-26.63,28.21-53.17,56.85-76.49,87.76-28.11,37.28-54.75,76-78.44,116.19-26.43,44.85-52.45,90.6-72,138.66-21.7,53.31-36.44,109.51-53.24,164.75-16,52.54-22.81,106.94-27.63,161.37-3.36,38-4.12,76.32-3.69,114.48a1074.18,1074.18,0,0,0,6.44,110c4,35.34,11.6,70.29,18.09,105.32,13.36,72.19,36.69,141.34,65.64,208.57,23,53.37,48.53,105.57,81.45,153.68,24.87,36.34,49.06,73.34,76.57,107.62a1076.28,1076.28,0,0,0,88.18,97c35.33,34.42,71.72,68.34,111.1,97.87,44.55,33.4,92.06,63.15,140,91.68,35.38,21.08,72.67,39.44,110.46,55.92,93,40.55,190.51,66.32,290.21,84.16,12.21,2.19,18.73-2.87,18.78-14.92.13-28.87-.2-57.75.19-86.62.12-8.36-3.2-11.48-11.12-12.85-62.64-10.86-124.59-25-183.92-48-47.33-18.38-95.18-36.51-139.88-60.27-47.94-25.47-93.59-55.77-138.1-87-33.87-23.77-65.64-51-96.15-79-63.93-58.77-120.19-124.5-164.61-199.29-27.81-46.81-54.33-94.69-77.18-144.05A756.18,756.18,0,0,1,478,1694.84c-8.33-50.86-15.71-102.06-19.58-153.4-2.75-36.54-.07-73.65,2.24-110.37,2.2-35.16,4.59-70.63,11.34-105.09,8.65-44.19,20.36-87.91,33.25-131.1,17.29-58,42.87-112.57,70.89-166.22C608.66,966.31,648.4,909,694.38,856.2a1098.35,1098.35,0,0,1,87-89.39c32.49-29.72,66.89-57.56,102.09-84,48.93-36.84,102.22-67,158-92.1,43.75-19.66,87.85-39.81,133.7-53.19,56.57-16.51,115-26.58,172.88-38.59,10.44-2.16,14.48-6.72,14.45-16.51C1362.44,468.13,1362.47,453.9,1362.46,439.66Z"
    transform="translate(-201.21 -232.31)" />
  <path
    d="M1616.06,2515.73c0-44.81-.32-85.67.52-126.52.08-3.91,6.81-10.09,11.37-11.13,34.61-7.81,69.75-13.36,104.14-22a885.36,885.36,0,0,0,170.1-61.49,941.52,941.52,0,0,0,177.37-111.49c45.86-36.47,86.5-78.58,124.08-123.69a847.05,847.05,0,0,0,99.37-148,882.64,882.64,0,0,0,46-102A724.46,724.46,0,0,0,2379.25,1706a991.3,991.3,0,0,0,18.28-122.72c3.52-42.77,5.57-86.17,2.39-128.86-3.58-48.09-12.07-96-21.4-143.44a607.61,607.61,0,0,0-55.29-159c-22-43-46.59-84.78-71.93-125.94-35.72-58-82.52-107-131.8-153.58a824.34,824.34,0,0,0-144.88-109.9c-54.13-32.23-110-60.83-170.14-79.95-42-13.37-84.7-24.83-127.27-36.42a193.46,193.46,0,0,0-37.73-5.86c-10.67-.72-12.54-7.77-12.45-15.21.43-38.86,1.51-77.71,2.39-116.56,0-1.75.31-3.5.65-7.27,10.71,0,21.56-1.51,31.86.25,59.54,10.24,118.4,23.44,175.59,43.36a1146.1,1146.1,0,0,1,184.55,82.61,1007.85,1007.85,0,0,1,202.44,149.64c58.06,55.25,109.71,116,153.66,183.23A1020.47,1020.47,0,0,1,2482,1167.08c24.48,66.58,42.28,135.32,51.64,205.82,9.42,70.95,11.62,142.28,5.44,213.64-7.95,91.73-26.82,181.26-59.06,267.58-26.22,70.2-59.15,137.36-100.08,200.2a982.17,982.17,0,0,1-141.63,171.19,1082.73,1082.73,0,0,1-150.86,121.77c-71.95,48-148.38,87-230.76,113.32-49.14,15.69-99,29.44-149.16,41.52C1678.4,2509.14,1648,2511.15,1616.06,2515.73Z"
    transform="translate(-201.21 -232.31)" />
</svg>
