<svg xmlns="http://www.w3.org/2000/svg"
  viewBox="0 0 2346.2 2630.32">
  <path
    d="M885.59,1605.19c18.19,8.13,36.23,16.6,54.61,24.28,15.42,6.45,31.39,11.6,46.82,18,12.33,5.12,24.07,11.61,36.33,16.9,24.39,10.54,49,20.55,73.44,31,17.48,7.48,34.67,15.63,52.3,22.69,3.07,1.23,9.75-.16,11.31-2.57,16.27-25.1,31.53-50.85,47.67-76,22-34.38,50-63,84.68-84.88,13.15-8.27,26.6-16.23,38.87-25.68,24.16-18.59,52.55-24.49,81.49-28.42,16.5-2.24,33.33-2,50-3.3,3.53-.29,6.88-2.78,12.43-5.16-14.81-7.25-26.53-13.85-38.88-18.85-35-14.17-53.53-44.51-73.79-73.31-26.9-38.27-35.61-82.1-39.55-127.52-2.54-29.18-7.64-58.31-7.72-87.48,0-19.34,4.8-39.33,10.89-57.9,11-33.71,26.51-66,36.69-99.92,15.58-51.9,48-91.65,85.1-128.84,15.85-15.86,29.27-34.67,46.86-48.16,26.31-20.16,54.69-37.89,83.4-54.56a317,317,0,0,1,59.07-26.08C1673,757.68,1708.8,747,1745,737.91c36.37-9.14,73.47-15.32,110.06-23.65,19.75-4.5,26.71-24,16-41-13.87-22.09-29-43.55-40.92-66.67-15.73-30.58-10.58-61.76,10.4-87.26,15.58-18.93,37.23-32.78,55.63-49.5,29.63-26.92,67.67-36.17,103.48-50.07,5.54-2.16,12.11-1.67,20.84-2.72-1.58-4.73-2-9.91-4.63-13.27-19.92-25.08-18.16-59.12,2.61-84,26.92-32.28,52.78-65.47,78.29-98.89,8.37-11,19-14.88,30.73-11.92,5.21,1.32,11.29,10.19,12,16.22,1.73,14.74.57,29.83.57,44.77v19c7.09-4.68,13.67-6.59,15.16-10.46a274.56,274.56,0,0,0,11.31-38.82c3.72-16.75,1.24-35.31,15.63-48.68,8.31-7.72,22.57-8.47,30.83-.53,8,7.7,5.19,15.2.25,24.18s-7.13,19.93-9.74,30.2a198.86,198.86,0,0,0-5,27.51c-.48,4.38,1.26,9,2,13.51l6,1c3.06-7.2,5.75-14.59,9.28-21.57,3.41-6.75,7.08-17.9,11.69-18.46,7-.85,15.86,4.59,22.29,9.5,6.63,5.05,11.48,12.53,16.78,19.2,2.3,2.9,5.47,6.5,5.38,9.7-.7,25.12,9.56,49.45,1.14,75.52-9.51,29.45-19.38,57.6-42.07,80-28.21,27.79-62.44,40.31-100.91,46.62-18.52,3-31.86-5-46.64-10.93-15.91-6.36-26.27-5.15-38.63,6.22-15,13.79-30.75,26.79-45.87,40.48a260.26,260.26,0,0,0-22.81,22.73c-14.66,17.07-8,42.72,13.76,54.45,15.59,8.41,33.18,14.39,46.42,25.55,19.71,16.61,39.68,34.74,53.29,56.18,11,17.39,12.86,40.62,18.84,61.24,10.05,34.64-7.29,63.78-20.68,92.84-4.36,9.48-17.89,15.82-28.48,21.08-13.52,6.72-15.79,11.55-4.53,20.52,54.27,43.26,78.07,102.81,91.18,168.33,10.83,54.18,5.25,106.35-10.41,159.54a452.29,452.29,0,0,1-82.3,157c-24.66,30.66-57.07,55.09-86,82.29-2.76,2.59-6.61,4.54-8.25,7.68-1.76,3.37-3.24,8.82-1.66,11.47s7.68,4.91,10.77,4c28.2-8.69,56-18.54,84.26-27.17,19.23-5.88,39.1-9.66,58.29-15.66a384.28,384.28,0,0,0,46.58-18c20.3-9.41,40.43-19.38,59.83-30.51,41.22-23.64,80.07-50.7,110.23-88.08,9.1-11.27,14.34-24.13,9.79-40.6-8.3-30-9.18-61.3.42-90.91,7.7-23.77,25.37-41.68,45.83-56.51,4-2.91,7.28-9.47,7.54-14.52.91-17.7.14-35.48.39-53.22q1.29-89.67,2.86-179.35c.9-52.58,1.71-105.17,3-157.75.32-12.81-6.3-19.94-14.88-28.56-18.28-18.34-40.76-36.57-49.45-59.43-12.1-31.86-3.72-66.15,17.12-95.12,13.69-19,30.58-34.11,52.24-44.25,17.47-8.19,34.79-8.32,53.1-5.32,16.44,2.69,32.93,5.07,49.53,6.51,39.14,3.4,81.51,53.08,79.28,96.08-2.12,40.8-13.81,75-43.31,103.88-12.26,12-22.19,27.1-30.34,42.31-4.58,8.56-3.84,20.18-4.62,30.49-1.37,18-2,36.09-3,54.14-2.88,51.27-5.2,102.59-8.93,153.8-1.82,24.92-7.34,49.57-9,74.5-.48,7.34,4.66,18.15,10.7,22.29,36.9,25.33,40.67,62.47,38.3,101.84-.7,11.61-5,23-6.73,34.56-6,41.78-35.43,70.93-56.16,104.73-16,26.06-33.55,51.17-48.86,77.61-19.23,33.18-35.81,67.92-55.5,100.82-22.23,37.15-48.33,71.33-77.52,103.87-20.37,22.69-43.47,38.42-69.26,51.75-32.26,16.67-67.54,24.49-102.64,33.07-36.43,8.9-71.2,22.51-98.12,50.46-15.37,16-33.71,30.27-44.84,48.84-20,33.35-35.28,69.48-53,104.2-10.5,20.56-21.88,40.66-32.93,60.93-3.8,7-8.29,13.6-11.47,20.82-1.32,3-1.35,8.18.45,10.47,1.44,1.84,7,2.06,9.9.87,9.06-3.76,18.25-7.69,26.41-13.05,23.58-15.54,49.33-21.18,77-18.16,5.38.59,10.76,3.4,15.64,6.09,35.53,19.58,58.76,50.94,81.57,83.3,14.67,20.81,25.28,45.64,49.46,58.57,6.17,3.3,12.32,6.88,18.87,9.2s11,.83,13.85-7.38c15.49-45.3,51.39-67.06,93.42-84.72,35.13-14.76,66.1-5.37,98.44,5,4.07,1.31,8.58,1.24,12.88,1.81-.55-4.77-.42-9.74-1.78-14.26-4-13-12.65-24.65-6.87-39.94,8.42-22.29,22.31-39.55,44.59-47.44,33.91-12,87.16,13.89,95.89,46.3,4.34,16.12,8,32.77,1.58,49.7a32,32,0,0,0,6.13,32.61c15.29,17.1,31.45,33.6,45.13,51.93,19.08,25.55,17.57,54.63,12.64,84.85-4.44,27.15-15.76,51.32-32.67,70.81s-34.24,41.43-64.17,45.16c-9.23,1.15-12.82-1.62-15-8-3.54-10.59-7.78-21.56-8.11-32.48-.93-30.24-6.32-59.1-17.64-87.27-10.14-25.21-45.29-47.59-69.68-34.42-11.27,6.09-20,17.4-28.87,27.27-21.68,24.2-39.48,52.27-67.66,69.91-13.77,8.62-20.83,21.3-27.54,35-17.36,35.55-47,49-85.4,39.06-15.76-4.08-29.39-10.48-43.31-19-14.51-8.93-32.41-13.16-49.37-17a225.13,225.13,0,0,0-48.93-5.68c-15.93-.08-31.87,4.62-47.8,4.57-16.4-.06-32.84-3-49.18-5.27-12.57-1.75-25-4.41-37.53-6.65-23.41-4.2-42.12-17.37-60.52-31.34-4.35-3.3-9.54-6.26-14.78-7.47-7-1.61-10.85,1.29-12.27,9.67-6.24,36.89-23.55,67.72-53,91.37-11.23,9-21.65,19.24-33.63,27.09-22.85,15-47.11,26.6-74.2,33.22-28.45,7-56.73,3.56-84.7,1.66-27.4-1.86-54.35-10-81.58-14.9a242.44,242.44,0,0,0-35.11-4.22c-10.79-.34-14.77,7.06-10.68,16.25,16.38,36.87,9.58,71.62-8.82,105.23-13.7,25-25.51,51.81-43.27,73.66-25.88,31.85-56.06,60.24-92.44,80.9-21.29,12.09-42,25.16-63.34,37.23-15.27,8.66-19.9,21.64-20.9,38.52-1.15,19.65-4.76,39.24-8.45,58.64-4.52,23.78-21.45,38.23-41,49.9a219.29,219.29,0,0,1-27.58,13.94c-17.7,7.45-35,1.94-50.38-6-16.92-8.71-35.93-14.57-46.39-34-17.93-33.29-18.88-65.85-.63-98.54,9.24-16.55,8.22-18.08-9.46-22.78a99.58,99.58,0,0,1-50.4-31.29c-16.29-18.65-25.38-39.84-25.76-63.87-.17-10.93,4.15-22.7,9.12-32.76,11-22.32,23-44.23,36-65.46a192.89,192.89,0,0,1,28-36.17c17.5-17.4,36.23-33.65,55.27-49.37,12.35-10.2,26.93-18.14,43.5-12.9,5.62,1.78,12.66,9.73,13.06,15.29,1,14.54-2.12,29.32-2,44,.19,21,.6,42.15,3.16,63,2.75,22.32,8.11,44.32,13.07,70.39,7-6.15,14.39-9.8,17.36-15.67,21.38-42.24,41.69-85,62.72-127.42a233,233,0,0,1,17.39-29c16.13-23.34,19.75-51,28.07-77.14,7.93-24.87,15.7-50.31,28.14-73,5.52-10.07,21.74-18,34.15-19.86,43-6.35,76.3-31,110.06-54.59,29.61-20.63,56.25-45.63,86.69-64.63,18.48-11.53,41.6-15.95,63-22.34,13.89-4.15,28.59-5.53,42.63-9.29,6.71-1.79,12.7-6.27,19-9.51l-.13-5.24q-31-14.29-62.07-28.58c-10.16-4.71-20.11-9.89-30.4-14.29-31.58-13.53-57.75-35.48-83.59-56.94-21.76-18.07-44.77-36.73-57.71-62.84-11.34-22.9-19.51-47.37-29-71.17-.33-.83.06-1.93-.12-2.86-4.62-24.54-13.28-29.41-36-20.31-38,15.25-69.19,41.25-101.78,65-27.08,19.71-53.29,40.63-80.74,59.8-9.1,6.35-20.44,10.06-32.63,5.48-24.17-9.09-50.14-14.73-72.46-27.06-38.06-21-79.39-35.74-114.58-62.85-19.49-15-37.53-30.58-53.74-48.85-15.34-17.28-34.81-31.77-46.66-51-13-21.25-30.23-26.25-52.26-29.2-32.47-4.34-64.38-11.21-94.83-25.09-27.29-12.43-52.9-26.87-72.23-49.53-10.64-12.63-16.14-29.42-25.33-43.33-5.62-8.54-12.6-17.4-21.13-22.57-28-17-58.25-30.53-85.36-48.79-33.41-22.49-66.61-46.14-96-73.46-26.92-25-50.26-54.38-72.12-84.08-12.61-17.1-19.2-38.63-28.2-58.27a18.58,18.58,0,0,1-1.55-9.64c1.54-12.27-3.92-18.28-15.25-22.9-18.55-7.55-27.4-40.47-17-58,14.2-23.8,14.85-24.51-6.22-43.84-12.27-11.26-12.14-24.72-10.24-38.11,3.09-21.79,6.62-44,22.8-61.1,18.7-19.73,38.14-32.85,69.07-29.44,25,2.75,35.69,13.45,43.43,34.49,5.58,15.16,11.83,12.85,24.08,2.55,16.3-13.71,34.68-27.18,54.49-34.08,45.95-16,93-29.44,140.25-41,22.74-5.57,47.06-5.62,70.71-6.3,34.07-1,68.18-.25,103-.25a63.32,63.32,0,0,0,1.21-7.48c1.13-36.66,27.06-60.5,64.16-61.88,38.86-1.44,74.18,7.85,105.19,30.86,25.36,18.82,28.06,51.87,4.82,71.93-2,1.76-3.5,4.22-7.33,9,9.19,2.53,16.36,5.68,23.76,6.32,34,3,64.19,16.69,93.34,33.11,7.2,4.06,16.48,15.62,19.51,14,12.18-6.62,22.38-17,33.15-26.11,47.22-40.09,93.56-81.29,142-119.81,16-12.72,35.6-22.73,58.5-22.07,32,.93,53.15,27.7,45.67,59.14-6.15,25.83-25.47,41.8-44,57.68-26.39,22.56-53.77,44-81.45,65-21,15.91-43.14,30.31-64.75,45.4-13.19,9.21-13.58,16.15-1,25.18,27.38,19.6,38.92,48.68,48.07,79.29,1.69,5.65,3.57,11.25,6.12,19.24,8.21-6.82,14.33-11.73,20.27-16.85,17-14.62,33.45-6.64,49.1,1.92,23.14,12.65,28.1,36.36,34,59.34,4.44,17.44,3.81,33.82-4,50.75-8.76,19-22.53,25.15-42,22.61-3.24-.42-6.58-.06-11-.06,0,5-1.12,9.53.17,13.16,9.5,26.65,3.78,41-21,53.26-6.22,3.1-12.44,7.45-16.82,12.75-28.31,34.11-64.51,59.11-101.13,82.43-40,25.46-84,43.73-132.08,48.32-29.74,2.84-59.64,4-89.47,5.94-4.44.29-8.84,1.16-13.26,1.76Zm817.78-697.4-.27,2.33c-9.09,0-18.56-1.67-27.18.32-24.48,5.65-49.52,10.57-72.66,19.93-28,11.34-56.6,23.87-80.84,41.51-26.56,19.35-49.89,43.84-71.87,68.55a206.74,206.74,0,0,0-35.19,55.67c-18.25,42.88-17.6,89.49-20.45,135.07-1.68,26.85,2.15,53.63,9,79.72,2.91,11.13,5.64,23.23,12.08,32.33,16.87,23.86,35,46.9,54,69.15,21.34,25.06,46.31,46.24,77.15,58.92,29.45,12.1,58.95,24.42,89.27,34,18.15,5.73,38.15,9.79,56.87,8.43,26.49-1.93,52.81-8.58,78.76-15,28.2-7,54.25-19.1,78.53-35.69,33.92-23.18,64.09-50.54,88.75-82.86,15.42-20.22,24.67-45.06,37.61-67.3,22.17-38.13,28.53-80.14,31.39-123,2.22-33.31-7.11-64.2-19.89-94.61-16.6-39.48-33.06-79-67.39-106.89C1903.26,974,1884.9,959,1864.4,949.51c-26.88-12.5-53.05-27.9-84.1-30.49C1754.48,916.8,1729,911.62,1703.37,907.79Zm-420.29,410.13c0-1.43.08-2.88,0-4.31-.88-13.19-5.61-25.46-18.92-28.66-12.19-2.93-24.73.65-30.2,14.47-2.87,7.25-3.12,15.79-7,22.33-5,8.43-11.24,17-19.07,22.48-4.42,3.1-13.15.75-19.81-.16-29.82-4.08-59.84-7.31-89.33-13.14-34.29-6.78-68-16.53-102.16-24-38.5-8.35-77.24-15.59-115.9-23.25-38.22-7.57-76.51-14.78-114.68-22.65q-68.94-14.2-137.69-29.32c-38.73-8.42-77.38-17.2-116-25.89-14.77-3.33-29.61-6.45-44.23-10.37-41-11-81.87-22.67-123-33.28-4.15-1.07-12.13,1.86-14.12,5.35-5.54,9.69-9,20.58-13,31.12-4.22,11.11.72,19.25,11,21.62,17.84,4.09,26,16.41,26.27,32.2.47,22.85,9.23,42.58,18.67,62.13a166.94,166.94,0,0,0,45.27,56.83c43.72,35.43,88,70.28,134.07,102.62,20,14.06,44.56,21.84,67.55,31.26,3.92,1.61,12-1.37,15.35-4.87,13.45-13.9,29.67-16.06,45.38-4,7.12,5.48,11.64,5.62,14.51-3.93,3.74-12.42,20.28-19.36,31.37-13.47,20.37,10.8,28.9,28.67,25.76,52.5-1.24,9.47,2.11,15.43,13.39,14.93,7.48-.32,15,1.29,22.56,2,22.61,2.13,45.33,6.82,67.8,5.8,35.88-1.63,71.68-6.38,107.33-11.18a323.5,323.5,0,0,0,53.15-12.16c28.27-8.85,54.06-22.62,78.27-40.18,28.84-20.91,58.87-40.49,81.28-68.43,7.2-9,15-12.2,24.36-14,18.27-3.41,18.11-2.9,13.66-22.06-2.89-12.41-6-26.28,7.66-33.85,8.54-4.73,19.32-6.74,29.25-7.35C1274.42,1343.77,1283.14,1337,1283.08,1317.92Zm-881.7-198.36.37,6.44c4.15,1.91,8.09,4.73,12.46,5.73,21.45,4.92,43,9.49,64.53,14,6.91,1.44,14,3.61,20.9,3.2,35.74-2.12,68.41,12.26,102.59,18.41,16.11,2.89,31.89,7.6,48,10.45,18.09,3.19,36.59,4.23,54.55,8,30.73,6.37,61.05,14.73,91.79,21,23.93,4.92,48.39,7.27,72.35,12.06,39.53,7.9,78.85,16.85,118.25,25.35,16,3.46,32.2,6.47,48.1,10.47,14.39,3.62,28.34,9.06,42.79,12.28,10.55,2.34,21.91,1.14,32.37,3.72a315.84,315.84,0,0,1,42.15,14.09c9.84,4,17.22,2.47,24.67-6.21-10.14-17.2-19.54-34.89-30.59-51.48-15.69-23.57-30.94-47.65-55-64.26-17.83-12.3-35.55-24.83-52.56-38.24-29.75-23.45-63.39-38.6-99.69-48-25.44-6.57-51.39-11.2-76.73-18.09-5.46-1.48-13.31-9.09-13.18-13.68.61-21.32,11.82-30.52,34-30.94,1,0,2.23.4,2.83-.07,7.54-5.78,17.49-10.3,21.71-18,3.87-7,1.26-15.57-8-22.73-17.78-13.71-37.46-16.25-57.64-13.92-9.15,1.06-21,7.85-25.18,15.54-5.76,10.7,1.59,19.76,13.64,25.16,12.6,5.64,13,17.93,10.25,29.64-2.85,12.11-8,22.4-23.59,21.12-16.57-1.35-33.23-1.71-49.8-3-15.77-1.26-31.45-3.67-47.22-4.73-23.73-1.58-47.77-5.15-71.21-2.9-30.25,2.91-60.22,9.91-90,16.63-29.54,6.67-59.67,12.62-87.66,23.63C446.88,1090,424.69,1106.18,401.38,1119.56Zm2032.25-66.22,5,1.3c2.34-5.43,6.19-10.72,6.74-16.33,2.56-26,4.9-52,6-78,1.61-38.64,2.1-77.32,3.06-116,0-1.43,0-2.88.09-4.31,3.8-46.72,6.08-93.65,12.19-140.07,2.33-17.75,11.84-35.22,20.89-51.24,10.07-17.83,23.62-33.68,35-50.84,2.66-4,3.14-9.77,3.69-14.83,2.44-22.39-8-38.81-24.16-53.1-38.23-33.89-66.22-23.75-96.88,8.12-13.21,13.74-14.11,41.74-2.73,57.12,9.55,12.92,20.7,24.64,30.91,37.09,11.77,14.34,19.34,30.36,17.15,49.49-1.49,13.1-4.56,26.08-5.29,39.2-2.39,42.78-4.23,85.58-5.9,128.39-1.28,32.9-1.84,65.82-3,98.72-.53,14.81-2.26,29.58-2.6,44.38C2433.28,1012.73,2433.63,1033,2433.63,1053.34ZM853.27,1614.67c-7.77,0-12,.07-16.23,0-23.29-.45-46.58-.65-69.85-1.5-21.88-.79-35.45-14.56-36.75-35.68a158.94,158.94,0,0,0-3.58-26.61c-.73-3.09-5.21-5.3-8-7.92-1.18,3.25-3.65,6.63-3.31,9.71,1.42,13.08,4.38,26,5.38,39.1.67,8.86-1.46,17.06-13.64,17.29-11.54.21-20.46-1.67-22.95-15.28a324,324,0,0,0-8.84-35.43c-.77-2.57-4.89-4.14-7.47-6.17-.8,3.12-2.94,6.63-2.17,9.3,4.64,16.1,8.9,32.46,15.47,47.8,3.34,7.8,10,16.81,17.36,19.7,15.89,6.25,33.07,9.48,49.94,12.87,25.33,5.09,50.76,9.82,76.33,13.38,6,.83,16.31-1.8,18.54-6C848.56,1639.57,849.82,1628,853.27,1614.67Zm457.16-651.39c-3.39-3.34-6.54-8.64-11-10.22-4.14-1.46-11.15-.69-14.39,2-35.06,29.65-69.31,60.27-104.46,89.82-21.64,18.19-44.55,34.86-66.64,52.52-5.72,4.58-13.74,9.46-8.65,18.64,4.28,7.73,18.87,8,26.13,1.77,18-15.34,36-30.71,54.36-45.59,28.12-22.77,56.67-45,84.81-67.73,11.92-9.62,23.44-19.78,34.78-30.09C1307.56,972.45,1308.08,968.62,1310.43,963.28ZM2407.52,1128.4c-3.09.35-6.47-.27-7.48,1-12,15-26.73,29.56-26.53,50.09.25,25.53,3.72,51,5.26,76.54,1.31,21.77,34.81,43,53.23,31.11,12.1-7.78,20.53-21.45,29.91-33,1.2-1.49-.87-8-3.08-9.2s-6.87.61-9.6,2.41c-2.06,1.36-2.77,4.78-4.06,7.3-10.19,19.93-16,22.33-36.3,14.94-12.3-4.49-19.58-21.46-17.29-36,1.58-10,.61-20.52.68-30.8,0-5.12-1.34-10.6,0-15.32,4.81-16.86,10.64-33.43,15.76-50.2C2408.78,1134.76,2407.76,1131.75,2407.52,1128.4Zm-2073,30.79c4.88-13.53,10.2-24.65,12.78-36.37,2.81-12.78.76-25.46-10-34.94-9.5-8.36-19-4.13-28.14.49-19.92,10-22.73,37.24-5.08,50.39,9.26,6.93,19.22,13,30.41,20.43ZM2509.08,1180l-.19-6.68c-11.92-6.44-23.48-13.82-36.07-18.44-5-1.81-15.81,1.51-18.1,5.7-4.63,8.47,4.53,11.5,10.93,14.5,2.55,1.19,5,3.13,7.67,3.44C2485.19,1179.87,2497.13,1187,2509.08,1180Zm-59,15.91-5.58,4.24c2.38,13.84,17,13.94,25.94,20,2.62,1.76,8.58-1.45,13-2.37.36-2.18.71-4.36,1.07-6.54Zm9.35-69.89c.11,1.63.22,3.26.34,4.89,10.19,3.21,20.31,6.72,30.64,9.44,2.79.73,6.22-1,9.35-1.52-1.86-3.13-3-8-5.72-9.06a106.11,106.11,0,0,0-23.06-5.89c-3.7-.55-7.73,1.35-11.59,2.14Zm-7-53.62c7.85,6.45,14.09,12,20.82,16.84,1.63,1.18,5.72,1.2,7.09,0a9,9,0,0,0,2.33-7.41C2480.43,1072,2465.92,1066.56,2452.43,1072.42Z"
    transform="translate(-237.87 -184.84)" />
  <path
    d="M1663.25,1451.19c-33.81-1.78-57.79-19.3-75.32-43.34-20.24-27.78-44.88-51-67.69-76.12-12.77-14.07-22.18-31.53-31.38-48.4-5.94-10.87.84-33.93,9.1-38.91,12-7.23,29.81-3,40.68,9.74,24.66,28.79,54.45,46.31,92.69,54.46,32.52,6.92,63.53,4.34,94-2.37,19.29-4.24,37.83-16.47,54.13-28.58,21.24-15.78,43.92-19.89,65.69-11.54s23.85,28.79,9.8,47.47c-9.13,12.15-21.19,22.14-32.22,32.81-23.15,22.41-46.06,45.1-69.9,66.77-15.24,13.85-30.48,28.6-52.07,32.44C1687.8,1447.93,1674.69,1449.51,1663.25,1451.19Zm-74-128.21-1.88,4.59c1.75,2.11,3.28,4.48,5.3,6.29,17,15.18,34.3,29.93,50.92,45.47,15.27,14.28,27.9,16.34,45.39,4.12,18.88-13.19,37.16-27.27,55.38-41.38,2.81-2.17,3.9-6.58,5.78-10-.77-1.27-1.53-2.54-2.3-3.8-14.37,3.43-28.75,6.81-43.11,10.3s-29.21,10.86-43.27,9.71c-16.15-1.32-31.72-10-47.48-15.73-8.34-3-16.51-6.4-24.75-9.62Z"
    transform="translate(-237.87 -184.84)" />
  <path
    d="M1447.14,1119.87c1.35-16.59,10.77-39.28,32.81-54.22,26.25-17.8,55.29-17.31,79.59,1.17,24.93,19,38.91,53.34,20.5,87.33-12.46,23-31,39.7-56.7,48.47-13.83,4.72-26,2.59-38-3.27C1458.84,1186.4,1447.14,1164.5,1447.14,1119.87Zm74.83,6.81c0-13.61-6.5-22-16.39-21.25-10.43.76-16,6.92-16,17.59,0,9.2,9.82,20.86,17.81,20.2,10.55-.88,16.76-6.11,14.58-16.57Z"
    transform="translate(-237.87 -184.84)" />
  <path
    d="M1885,1234.77c-45.54,1.61-78.34-36.73-78.15-71.39.18-33.35,35-73.35,64.69-71.47,44.37,2.8,85.26,26.17,84.4,70.85C1955.18,1201.27,1926.41,1235.93,1885,1234.77Zm16.86-72.57c.12-10.2-12.48-25.25-20.88-24.94-6.12.22-19.31,17-15.47,23.41,4.56,7.57,14.21,14.07,22.94,16.58C1898.14,1180,1902.38,1171.87,1901.85,1162.2Z"
    transform="translate(-237.87 -184.84)" />
  <path
    d="M1665.54,1282c-29.71,2.42-52.39-10.17-71.69-31.24-12.57-13.72-14.29-29-4.1-44.64,11-16.82,21-34.47,33.53-50,11.11-13.76,33.08-11.43,44.34,2.49,8.24,10.2,1.84,26.2-14.75,31.68-13.07,4.31-17.4,13.25-19.29,24.91-1.39,8.53,2,14.11,10.2,18.08,21.61,10.47,44.46,9.7,67,6.78,20.92-2.71,24.86-21.52,30-38.1,3.5-11.22,10.31-19.29,22.38-21,11.15-1.59,21.51.86,25.45,12.78,1.84,5.55,2.11,13,0,18.27-15.26,37.6-44.28,58.53-83.56,65.63C1692,1280,1678.7,1280.62,1665.54,1282Z"
    transform="translate(-237.87 -184.84)" />
</svg>
